{"title":"Echosmith - Bright (2015.Indie Pop)","uid":11717079,"size":84338022,"categoryP":"video","categoryS":"music_videos","magnet":"?xt=urn:btih:0d52664b00c3ff29b6a970e19674377f1ba93fa3&amp;dn=Echosmith+-+Bright+%282015.Indie+Pop%29&amp;tr=udp%3A%2F%2Ftracker.openbittorrent.com%3A80&amp;tr=udp%3A%2F%2Fopen.demonii.com%3A1337&amp;tr=udp%3A%2F%2Ftracker.coppersurfer.tk%3A6969&amp;tr=udp%3A%2F%2Fexodus.desync.com%3A6969","seeders":22,"leechers":1,"uploader":"MeRaDil","files":1,"time":1424626639,"description":"ECHOSMITH - BRIGHT\n\n &lt;a href=&quot;\nhttp://gifyu.com/images/echo.png&quot; rel=&quot;nofollow&quot; target=&quot;_NEW&quot;&gt;\nhttp://gifyu.com/images/echo.png&lt;/a&gt;\n &lt;a href=&quot;\nhttp://gifyu.com/images/Echosmith.png&quot; rel=&quot;nofollow&quot; target=&quot;_NEW&quot;&gt;\nhttp://gifyu.com/images/Echosmith.png&lt;/a&gt;\n\nGeneral\nEchosmith - Bright\nFormat                      : MPEG-4\nFormat profile              : Base Media\nCodec ID                    : isom\nFile size                   : 80.4 MiB\nDuration                    : 3mn 37s\nOverall bit rate            : 3 106 Kbps\nMusicVid name               : Bright\nAlbum                       : Talking Dreams\nPerformer                   : Echosmith\nGenre                       : Indie Pop\nContentType                 : Music Video\nRecorded date               : 2015\nCopyright                   : Echosmith\nCover                       : Yes\nRating                      : ***\nMake                        : MeRaDil\nArtist url                  : http://www.echosmith.com\nLabel                       : Warner Bros\nRelease                     : USA . february 12 . 2015\nPart_ID                     : Bright\n\nVideo\nID                          : 1\nFormat                      : AVC\nFormat/Info                 : Advanced Video Codec\nFormat profile              : &lt;a class=&quot;__cf_email__&quot; href=&quot;/cdn-cgi/l/email-protection&quot; data-cfemail=&quot;b0f8d9d7d8f0fc849e80&quot;&gt;[email&amp;#160;protected]&lt;/a&gt;&lt;script cf-hash='f9e31' type=&quot;text/javascript&quot;&gt;\n/* &lt;![CDATA[ */!function(){try{var t=&quot;currentScript&quot;in document?document.currentScript:function(){for(var t=document.getElementsByTagName(&quot;script&quot;),e=t.length;e--;)if(t[e].getAttribute(&quot;cf-hash&quot;))return t[e]}();if(t&amp;&amp;t.previousSibling){var e,r,n,i,c=t.previousSibling,a=c.getAttribute(&quot;data-cfemail&quot;);if(a){for(e=&quot;&quot;,r=parseInt(a.substr(0,2),16),n=2;a.length-n;n+=2)i=parseInt(a.substr(n,2),16)^r,e+=String.fromCharCode(i);e=document.createTextNode(e),c.parentNode.replaceChild(e,c)}}}catch(u){}}();/* ]]&gt; */&lt;/script&gt;\nFormat settings, CABAC      : Yes\nFormat settings, ReFrames   : 2 frames\nCodec ID                    : avc1\nCodec ID/Info               : Advanced Video Coding\nDuration                    : 3mn 37s\nBit rate                    : 2 843 Kbps\nWidth                       : 1 920 pixels\nHeight                      : 1 080 pixels\nDisplay aspect ratio        : 16:9\nFrame rate mode             : Variable\nFrame rate                  : 23.976 fps\nMinimum frame rate          : 23.974 fps\nMaximum frame rate          : 23.981 fps\nColor space                 : YUV\nChroma subsampling          : 4:2:0\nBit depth                   : 8 bits\nScan type                   : Progressive\nBits/(Pixel*Frame)          : 0.057\nStream size                 : 73.6 MiB (92%)\n\nAudio\nID                          : 2\nFormat                      : AAC\nFormat/Info                 : Advanced Audio Codec\nFormat profile              : LC\nCodec ID                    : 40\nDuration                    : 3mn 37s\nBit rate mode               : Constant\nBit rate                    : 256 Kbps\nChannel(s)                  : 2 channels\nChannel positions           : Front: L R\nSampling rate               : 44.1 KHz\nCompression mode            : Lossy\nStream size                 : 6.63 MiB (8%)\n &lt;a href=&quot;\nhttps://thepiratebay.se/user/MeRaDil&quot; rel=&quot;nofollow&quot; target=&quot;_NEW&quot;&gt;\nhttps://thepiratebay.se/user/MeRaDil&lt;/a&gt;\n\nUSA febr.2015 * Echosmith * Talking Dreams * Promo * Indie Pop\n\n:)","torrent":{"xt":"urn:btih:0d52664b00c3ff29b6a970e19674377f1ba93fa3","amp;dn":"Echosmith+-+Bright+%282015.Indie+Pop%29","amp;tr":["udp%3A%2F%2Ftracker.openbittorrent.com%3A80","udp%3A%2F%2Fopen.demonii.com%3A1337","udp%3A%2F%2Ftracker.coppersurfer.tk%3A6969","udp%3A%2F%2Fexodus.desync.com%3A6969"],"infoHash":"0d52664b00c3ff29b6a970e19674377f1ba93fa3","infoHashBuffer":{"type":"Buffer","data":[13,82,102,75,0,195,255,41,182,169,112,225,150,116,55,127,27,169,63,163]},"announce":[],"urlList":[]}}